<mxfile host="app.diagrams.net" modified="2024-01-23T00:00:08.936Z" agent="Mozilla/5.0 (Windows NT 10.0; Win64; x64) AppleWebKit/537.36 (KHTML, like Gecko) Chrome/120.0.0.0 Safari/537.36" etag="rv7XwYheVCF-ZESfnw_a" version="22.1.21" type="device">
  <diagram name="Página-1" id="3RKF1JjzjNHgDTig0lS7">
    <mxGraphModel dx="1290" dy="522" grid="1" gridSize="10" guides="1" tooltips="1" connect="1" arrows="1" fold="1" page="1" pageScale="1" pageWidth="827" pageHeight="1169" math="0" shadow="0">
      <root>
        <mxCell id="0" />
        <mxCell id="1" parent="0" />
        <mxCell id="cj4zX5uemasjm0aPKkVh-31" value="&lt;p style=&quot;margin:0px;margin-top:4px;text-align:center;&quot;&gt;&lt;b&gt;usuário&lt;/b&gt;&lt;/p&gt;&lt;hr size=&quot;1&quot;&gt;&lt;p style=&quot;margin:0px;margin-left:4px;&quot;&gt;- CPF: Int&lt;/p&gt;&lt;p style=&quot;margin:0px;margin-left:4px;&quot;&gt;- Nome: String&lt;br&gt;- Sobrenome: String&lt;span style=&quot;background-color: initial;&quot;&gt;&amp;nbsp;&lt;/span&gt;&lt;/p&gt;&lt;p style=&quot;margin:0px;margin-left:4px;&quot;&gt;- Senha: String&lt;/p&gt;&lt;p style=&quot;margin:0px;margin-left:4px;&quot;&gt;- Data Nasc: Date&lt;/p&gt;&lt;p style=&quot;margin:0px;margin-left:4px;&quot;&gt;- Email: String&lt;/p&gt;&lt;hr size=&quot;1&quot;&gt;&lt;p style=&quot;margin:0px;margin-left:4px;&quot;&gt;+ Inserir()&lt;/p&gt;&lt;p style=&quot;margin:0px;margin-left:4px;&quot;&gt;&lt;br&gt;&lt;/p&gt;" style="verticalAlign=top;align=left;overflow=fill;fontSize=12;fontFamily=Helvetica;html=1;whiteSpace=wrap;" vertex="1" parent="1">
          <mxGeometry x="130" y="120" width="190" height="150" as="geometry" />
        </mxCell>
        <mxCell id="cj4zX5uemasjm0aPKkVh-35" value="&lt;p style=&quot;margin:0px;margin-top:4px;text-align:center;&quot;&gt;&lt;b&gt;pagamento&lt;/b&gt;&lt;/p&gt;&lt;hr size=&quot;1&quot;&gt;&lt;p style=&quot;margin:0px;margin-left:4px;&quot;&gt;- codCartao: Int&lt;br&gt;&lt;/p&gt;&lt;p style=&quot;margin:0px;margin-left:4px;&quot;&gt;- senhaCartao: Int&lt;/p&gt;&lt;p style=&quot;margin:0px;margin-left:4px;&quot;&gt;- nPix: Int&lt;/p&gt;&lt;p style=&quot;margin:0px;margin-left:4px;&quot;&gt;- valor: Float&lt;/p&gt;&lt;p style=&quot;margin:0px;margin-left:4px;&quot;&gt;- statusPag: String&lt;/p&gt;&lt;hr size=&quot;1&quot;&gt;&lt;p style=&quot;margin:0px;margin-left:4px;&quot;&gt;+ Inserir()&lt;br&gt;&lt;/p&gt;&lt;p style=&quot;margin:0px;margin-left:4px;&quot;&gt;+ Escolher()&lt;/p&gt;" style="verticalAlign=top;align=left;overflow=fill;fontSize=12;fontFamily=Helvetica;html=1;whiteSpace=wrap;" vertex="1" parent="1">
          <mxGeometry x="480" y="122.5" width="190" height="145" as="geometry" />
        </mxCell>
        <mxCell id="cj4zX5uemasjm0aPKkVh-38" value="&lt;p style=&quot;margin:0px;margin-top:4px;text-align:center;&quot;&gt;&lt;b&gt;passagem&lt;/b&gt;&lt;/p&gt;&lt;hr size=&quot;1&quot;&gt;&lt;p style=&quot;margin:0px;margin-left:4px;&quot;&gt;- codigo: Int&lt;/p&gt;&lt;p style=&quot;margin:0px;margin-left:4px;&quot;&gt;+ valor: Float&lt;/p&gt;&lt;p style=&quot;margin:0px;margin-left:4px;&quot;&gt;+ nPoltrona: Int&lt;/p&gt;&lt;p style=&quot;margin:0px;margin-left:4px;&quot;&gt;+ nomeFrota: String&lt;/p&gt;&lt;hr size=&quot;1&quot;&gt;&lt;p style=&quot;margin:0px;margin-left:4px;&quot;&gt;+consultar ()&lt;/p&gt;" style="verticalAlign=top;align=left;overflow=fill;fontSize=12;fontFamily=Helvetica;html=1;whiteSpace=wrap;" vertex="1" parent="1">
          <mxGeometry x="130" y="390" width="190" height="120" as="geometry" />
        </mxCell>
        <mxCell id="cj4zX5uemasjm0aPKkVh-41" value="" style="endArrow=none;html=1;rounded=0;exitX=1;exitY=0.5;exitDx=0;exitDy=0;entryX=0;entryY=0.5;entryDx=0;entryDy=0;" edge="1" parent="1" source="cj4zX5uemasjm0aPKkVh-31" target="cj4zX5uemasjm0aPKkVh-35">
          <mxGeometry width="50" height="50" relative="1" as="geometry">
            <mxPoint x="390" y="310" as="sourcePoint" />
            <mxPoint x="440" y="260" as="targetPoint" />
          </mxGeometry>
        </mxCell>
        <mxCell id="cj4zX5uemasjm0aPKkVh-42" value="1..1" style="text;html=1;strokeColor=none;fillColor=none;align=center;verticalAlign=middle;whiteSpace=wrap;rounded=0;" vertex="1" parent="1">
          <mxGeometry x="300" y="170" width="60" height="30" as="geometry" />
        </mxCell>
        <mxCell id="cj4zX5uemasjm0aPKkVh-43" value="1..1" style="text;html=1;strokeColor=none;fillColor=none;align=center;verticalAlign=middle;whiteSpace=wrap;rounded=0;" vertex="1" parent="1">
          <mxGeometry x="440" y="170" width="60" height="30" as="geometry" />
        </mxCell>
        <mxCell id="cj4zX5uemasjm0aPKkVh-44" value="fazer" style="text;html=1;strokeColor=none;fillColor=none;align=center;verticalAlign=middle;whiteSpace=wrap;rounded=0;" vertex="1" parent="1">
          <mxGeometry x="370" y="170" width="60" height="30" as="geometry" />
        </mxCell>
        <mxCell id="cj4zX5uemasjm0aPKkVh-45" value="&lt;p style=&quot;margin:0px;margin-top:4px;text-align:center;&quot;&gt;&lt;b&gt;ônibus&lt;/b&gt;&lt;/p&gt;&lt;hr size=&quot;1&quot;&gt;&lt;p style=&quot;margin:0px;margin-left:4px;&quot;&gt;+ placa: String&lt;/p&gt;&lt;p style=&quot;margin:0px;margin-left:4px;&quot;&gt;+ cor: String&lt;/p&gt;&lt;p style=&quot;margin:0px;margin-left:4px;&quot;&gt;+ nPoltronas: Int&lt;/p&gt;&lt;p style=&quot;margin:0px;margin-left:4px;&quot;&gt;+ nomeFrota: String&lt;/p&gt;&lt;hr size=&quot;1&quot;&gt;&lt;p style=&quot;margin:0px;margin-left:4px;&quot;&gt;+consultar ()&lt;/p&gt;&lt;p style=&quot;margin:0px;margin-left:4px;&quot;&gt;+aprovar ()&lt;/p&gt;" style="verticalAlign=top;align=left;overflow=fill;fontSize=12;fontFamily=Helvetica;html=1;whiteSpace=wrap;" vertex="1" parent="1">
          <mxGeometry x="480" y="382.5" width="190" height="135" as="geometry" />
        </mxCell>
        <mxCell id="cj4zX5uemasjm0aPKkVh-46" value="" style="endArrow=none;html=1;rounded=0;exitX=0.5;exitY=0;exitDx=0;exitDy=0;entryX=0.5;entryY=1;entryDx=0;entryDy=0;" edge="1" parent="1" source="cj4zX5uemasjm0aPKkVh-38" target="cj4zX5uemasjm0aPKkVh-31">
          <mxGeometry width="50" height="50" relative="1" as="geometry">
            <mxPoint x="390" y="310" as="sourcePoint" />
            <mxPoint x="440" y="260" as="targetPoint" />
          </mxGeometry>
        </mxCell>
        <mxCell id="cj4zX5uemasjm0aPKkVh-47" value="1..1" style="text;html=1;strokeColor=none;fillColor=none;align=center;verticalAlign=middle;whiteSpace=wrap;rounded=0;" vertex="1" parent="1">
          <mxGeometry x="210" y="270" width="60" height="30" as="geometry" />
        </mxCell>
        <mxCell id="cj4zX5uemasjm0aPKkVh-48" value="1..1" style="text;html=1;strokeColor=none;fillColor=none;align=center;verticalAlign=middle;whiteSpace=wrap;rounded=0;" vertex="1" parent="1">
          <mxGeometry x="210" y="360" width="60" height="30" as="geometry" />
        </mxCell>
        <mxCell id="cj4zX5uemasjm0aPKkVh-50" value="efetuar" style="text;html=1;strokeColor=none;fillColor=none;align=center;verticalAlign=middle;whiteSpace=wrap;rounded=0;" vertex="1" parent="1">
          <mxGeometry x="220" y="310" width="60" height="30" as="geometry" />
        </mxCell>
        <mxCell id="cj4zX5uemasjm0aPKkVh-53" value="" style="endArrow=diamondThin;endFill=0;endSize=24;html=1;rounded=0;exitX=0;exitY=0.5;exitDx=0;exitDy=0;entryX=1;entryY=0.5;entryDx=0;entryDy=0;" edge="1" parent="1" source="cj4zX5uemasjm0aPKkVh-45" target="cj4zX5uemasjm0aPKkVh-38">
          <mxGeometry width="160" relative="1" as="geometry">
            <mxPoint x="330" y="280" as="sourcePoint" />
            <mxPoint x="490" y="280" as="targetPoint" />
          </mxGeometry>
        </mxCell>
        <mxCell id="cj4zX5uemasjm0aPKkVh-54" value="" style="endArrow=diamondThin;endFill=0;endSize=24;html=1;rounded=0;exitX=0.5;exitY=0;exitDx=0;exitDy=0;entryX=0.5;entryY=1;entryDx=0;entryDy=0;" edge="1" parent="1" source="cj4zX5uemasjm0aPKkVh-45" target="cj4zX5uemasjm0aPKkVh-35">
          <mxGeometry width="160" relative="1" as="geometry">
            <mxPoint x="490" y="445" as="sourcePoint" />
            <mxPoint x="330" y="445" as="targetPoint" />
          </mxGeometry>
        </mxCell>
      </root>
    </mxGraphModel>
  </diagram>
</mxfile>
